# xmcd CD database file
#
# Track frame offsets:
#	150
#	17256
#	32429
#	44612
#	58905
#	72926
#	83632
#	95004
#	111599
#	122442
#	139958
#	156717
#	171210
#	184696
#
# Disc length: 2591 seconds
#
# Revision: 0
# Processed by: cddbd v1.5.2PL0 Copyright (c) Steve Scherf et al.
# Submitted via: CDex 1.70beta2
#
DISCID=c30a1d0e
DTITLE=Collard, Greens  Gravy - Devil In The Woodpile
DYEAR=2007
DGENRE=Blues
TTITLE0=No Love
TTITLE1=Sometimes I Wonder
TTITLE2=Parchman Farm
TTITLE3=Can't Take It
TTITLE4=Dyin' Bed
TTITLE5=Lonesome John
TTITLE6=Come Back
TTITLE7=Skinny Woman
TTITLE8=So Much Trouble
TTITLE9=So Bad This Morning
TTITLE10=Streamline Train
TTITLE11=Senotobia Stomp
TTITLE12=Take Me When I Drop
TTITLE13=Devil In The Woodpile
EXTD=YEAR: 2007
EXTT0=
EXTT1=
EXTT2=
EXTT3=
EXTT4=
EXTT5=
EXTT6=
EXTT7=
EXTT8=
EXTT9=
EXTT10=
EXTT11=
EXTT12=
EXTT13=
PLAYORDER=
